<svg id="crosshair" xmlns="http://www.w3.org/2000/svg" width="45.5" height="45.5" viewBox="0 0 45.5 45.5">
  <g id="horz">
    <rect y="21" width="3.5" height="3.5" fill="#fff"/>
    <rect x="3.5" y="21" width="3.5" height="3.5"/>
    <rect x="7" y="21" width="3.5" height="3.5" fill="#fff"/>
    <rect x="10.5" y="21" width="3.5" height="3.5"/>
    <rect x="17.5" y="21" width="3.5" height="3.5" fill="#da2f18"/>
    <rect x="21" y="21" width="3.5" height="3.5" fill="#da2f18"/>
    <rect x="24.5" y="21" width="3.5" height="3.5" fill="#da2f18"/>
    <rect x="31.5" y="21" width="3.5" height="3.5"/>
    <rect x="35" y="21" width="3.5" height="3.5" fill="#fff"/>
    <rect x="38.5" y="21" width="3.5" height="3.5"/>
    <rect x="42" y="21" width="3.5" height="3.5" fill="#fff"/>
  </g>
  <g id="vert">
    <rect x="21" y="42" width="3.5" height="3.5" fill="#fff"/>
    <rect x="21" y="38.5" width="3.5" height="3.5"/>
    <rect x="21" y="35" width="3.5" height="3.5" fill="#fff"/>
    <rect x="21" y="31.5" width="3.5" height="3.5"/>
    <rect x="21" y="24.5" width="3.5" height="3.5" transform="translate(-3.5 49) rotate(-90)" fill="#da2f18"/>
    <rect x="21" y="21" width="3.5" height="3.5" transform="translate(0 45.5) rotate(-90)" fill="#da2f18"/>
    <rect x="21" y="17.5" width="3.5" height="3.5" transform="translate(3.5 42) rotate(-90)" fill="#da2f18"/>
    <rect x="21" y="10.5" width="3.5" height="3.5"/>
    <rect x="21" y="7" width="3.5" height="3.5" fill="#fff"/>
    <rect x="21" y="3.5" width="3.5" height="3.5"/>
    <rect x="21" width="3.5" height="3.5" fill="#fff"/>
  </g>
</svg>
